# xmcd CD database file
#
# Track frame offsets:
#	150
#	11479
#	24130
#	36026
#	46985
#	60958
#	71118
#	89122
#	101457
#	112097
#	124920
#	137125
#	155637
#	168012
#	181871
#	192945
#	203794
#	224801
#
# Disc length: 3222 seconds
#
# Revision: 0
# Processed by: cddbd v1.5.2PL0 Copyright (c) Steve Scherf et al.
# Submitted via: CDex 1.51
#
DISCID=fd0c9412
DTITLE=Various Artist - Cool Yule: The Christmas Songbook
DYEAR=2005
DGENRE=Jazz
TTITLE0=Matt Dusk - Cool Yule
TTITLE1=Ella Fitzgerald - The Secret of Christmas
TTITLE2=Oscar Peterson - A Child is Born
TTITLE3=Ella Fitzgerald - Jingle Bells
TTITLE4=Billy Eckstine - Christmas Eve
TTITLE5=Ella Fitzgerald - frosty The Snowman
TTITLE6=Billie Holiday - I've Got My Love to Keep Me Warm
TTITLE7=Dinah Washington - Ole Santa
TTITLE8=Ella Fitzgerald - Santa Claus is Coming to Town
TTITLE9=Louis Armstrong - 'Zat You, Santa Claus'
TTITLE10=Ramsey Lewis - Here Comes Santa Claus
TTITLE11=Joe Williams - Christmas Waltz
TTITLE12=Matt Dusk and Hawksley Workman - Peace on Earth_Little Drummer Boy
TTITLE13=Ella Fitzgerald - White Christmas
TTITLE14=Sister Rosetta Tharpe - O Little Town of Bethlehem
TTITLE15=Dinah Washington - Silent Night
TTITLE16=Shirley Horn - The Christmas Song
TTITLE17=Matt Dusk - Have Yourself a Merry Little Christmas
EXTD=YEAR: 2005
EXTT0=
EXTT1=
EXTT2=
EXTT3=
EXTT4=
EXTT5=
EXTT6=
EXTT7=
EXTT8=
EXTT9=
EXTT10=
EXTT11=
EXTT12=
EXTT13=
EXTT14=
EXTT15=
EXTT16=
EXTT17=
PLAYORDER=
